<svg width="352" height="315" viewBox="0 0 352 315" fill="none" xmlns="http://www.w3.org/2000/svg">
<path d="M156.751 154.9H193.451L175.051 186.9L156.751 154.9ZM175.051 154.9L184.251 170.9H165.851" fill="#FBD65E"/>
<path d="M193.452 218.9H230.252L211.852 250.9L193.452 218.9ZM211.852 218.9L221.052 234.9H202.652" fill="#F0678E"/>
<path d="M230.252 154.9H193.452L211.852 122.9L230.252 154.9ZM211.852 154.9L202.652 138.9H221.052" fill="#FFE797"/>
<path d="M193.451 282.9H156.751L175.051 250.9L193.451 282.9ZM175.051 282.9L165.851 266.9H184.251" fill="#EE4E7C"/>
<path d="M156.751 218.9H193.451L175.051 250.9L156.751 218.9ZM175.051 218.9L184.251 234.9H165.851" fill="#F1AD28"/>
<path d="M119.952 154.9H83.1517L101.552 122.9L119.952 154.9ZM101.552 154.9L92.3517 138.9H110.752M266.952 154.9H230.152L248.552 122.9L266.952 154.9ZM83.1517 154.9L73.9517 138.9H92.3517" fill="#F57DAF"/>
<path d="M119.952 218.9H156.752L138.352 250.9L119.952 218.9ZM138.352 218.9L147.552 234.9H129.152" fill="#F0678E"/>
<path d="M156.652 154.9H119.952L138.352 122.9L156.652 154.9ZM138.352 154.9L129.152 138.9H147.552" fill="#FFE797"/>
<path d="M175.052 186.9H211.852L193.452 218.9L175.052 186.9ZM193.452 186.9L202.652 202.9H184.252" fill="#F1AD28"/>
<path d="M248.551 186.9H211.851L230.251 154.9L248.551 186.9ZM64.8514 186.9L55.6514 170.9Z" fill="#EE4E7C"/>
<path d="M119.952 90.9H83.1517L101.552 58.9L119.952 90.9ZM101.552 90.9L92.3517 74.9H110.752M230.252 90.9H193.452L211.852 58.9L230.252 90.9ZM83.1517 90.9L73.9517 74.9Z" fill="#F9D664"/>
<path d="M80.1517 87.9H43.4517L61.8517 119.9L80.1517 87.9ZM61.8517 87.9L52.6517 103.9H70.9517" fill="#F4AEC2"/>
<path d="M251.051 35.8H214.251L232.651 67.8L251.051 35.8ZM232.751 35.8L223.551 51.8H241.851" fill="#F3E0A1"/>
<path d="M211.852 122.9H175.052L193.452 90.9L211.852 122.9ZM193.452 122.9L184.252 106.9H202.652" fill="#F7C954"/>
<path d="M318.33 62.7609H281.53L299.93 30.7609L318.33 62.7609ZM299.93 62.7609L290.73 46.7609H309.13" fill="#F57DAF"/>
<path d="M230.252 90.9H193.452L211.852 122.9L230.252 90.9ZM211.852 90.9L202.652 106.9H221.052" fill="#F3E0A1"/>
<path d="M36.7 2.08282H0L18.4 34.0828L36.7 2.08282ZM18.3 2.08282L9.1 18.0828H27.5" fill="#F4AEC2"/>
<path d="M211.852 250.9H175.052L193.452 218.9L211.852 250.9ZM193.452 250.9L184.252 234.9H202.652" fill="#EE4E7C"/>
<path d="M138.352 122.9H101.552L119.952 90.9L138.352 122.9ZM119.952 122.9L110.752 106.9H129.152" fill="#F7C954"/>
<path d="M75.6517 83.4H38.9517L57.3517 51.4L75.6517 83.4ZM57.2517 83.4L48.0517 67.4H66.4517" fill="#F57DAF"/>
<path d="M156.651 90.9H119.951L138.351 122.9L156.651 90.9ZM138.351 90.9L129.151 106.9H147.551M97.9515 30.5H61.2515L79.5515 62.5L97.9515 30.5ZM110.751 106.9H129.151Z" fill="#F3E0A1"/>
<path d="M285.352 122.9H248.552L266.952 90.9L285.352 122.9ZM266.952 122.9L257.752 106.9H276.152" fill="#F57DAF"/>
<path d="M319.839 81.5479H283.039L301.439 113.548L319.839 81.5479Z" fill="#F4AEC2"/>
<path d="M285.152 0H248.452L266.752 32L285.152 0ZM266.752 0L257.552 16H275.952" fill="#F3E0A1"/>
<path d="M138.352 186.9H175.052L156.752 218.9L138.352 186.9ZM156.752 186.9L165.952 202.9H147.552" fill="#F1AD28"/>
<path d="M138.352 186.9H101.552L119.952 154.9L138.352 186.9ZM119.952 186.9L110.752 170.9H129.152M101.552 186.9L92.3518 170.9H110.752M175.052 250.9H138.352L156.752 218.9L175.052 250.9ZM74.0518 170.9H165.852Z" fill="#EE4E7C"/>
<path d="M101.551 122.9H64.7515L83.1515 90.9L101.551 122.9ZM83.1515 122.9L73.9515 106.9H92.2515" fill="#F57DAF"/>
<path d="M156.652 90.9H119.952L138.352 58.9L156.652 90.9ZM138.352 90.9L129.152 74.9H147.552M266.952 90.9H230.152L248.552 58.9L266.952 90.9ZM119.952 90.9L129.152 74.9Z" fill="#F9D664"/>
<path d="M119.952 90.9H83.1517L101.552 122.9L119.952 90.9ZM101.552 90.9L92.3517 106.9H110.752M138.352 47.7H101.552L119.952 79.7L138.352 47.7ZM83.1517 90.9L73.9517 106.9H92.3517" fill="#F3E0A1"/>
<path d="M248.552 122.9H211.852L230.252 90.9L248.552 122.9ZM230.252 122.9L221.052 106.9H239.352" fill="#F7C954"/>
<path d="M266.951 90.9H230.151L248.551 122.9L266.951 90.9ZM248.551 90.9L239.351 106.9H257.751" fill="#F3E0A1"/>
<path d="M175.052 122.9H138.352L156.652 90.9L175.052 122.9ZM156.652 122.9L147.452 106.9H165.852" fill="#F7C954"/>
<path d="M54.6297 41.9265H17.9297L36.3297 73.9265L54.6297 41.9265ZM36.2297 41.9265L27.0297 57.9265H45.4297" fill="#F4AEC2"/>
<path d="M351.321 6.20001H314.521L332.921 38.2L351.321 6.20001Z" fill="#F4AEC2"/>
<path d="M211.852 186.9H175.052L193.452 154.9L211.852 186.9ZM193.452 186.9L184.252 170.9H202.652" fill="#FFE797"/>
<path d="M83.1514 186.9L92.3514 202.9ZM211.851 186.9H248.651L230.251 218.9L211.851 186.9ZM101.551 186.9L110.751 202.9Z" fill="#F0678E"/>
<path d="M175.052 122.9H211.852L193.452 154.9L175.052 122.9ZM193.452 122.9L202.652 138.9H184.252" fill="#F9D664"/>
<path d="M175.052 250.9H211.852L193.452 282.9L175.052 250.9ZM193.452 250.9L202.652 266.9H184.252" fill="#D73966"/>
<path d="M101.552 122.9H138.352L119.952 154.9L101.552 122.9ZM119.952 122.9L129.152 138.9H110.752" fill="#F9D664"/>
<path d="M248.552 122.9H285.352L266.952 154.9L248.552 122.9ZM266.952 122.9L276.152 138.9H257.752" fill="#F0678E"/>
<path d="M175.052 186.9H138.352L156.752 154.9L175.052 186.9ZM156.752 186.9L147.552 170.9H165.852" fill="#FFE797"/>
<path d="M101.552 186.9H138.352L119.952 218.9L101.552 186.9ZM119.952 186.9L129.152 202.9H110.752M138.352 186.9L147.552 202.9H129.152" fill="#F0678E"/>
<path d="M138.352 250.9H175.052L156.752 282.9L138.352 250.9ZM156.752 250.9L165.952 266.9H147.552" fill="#D73966"/>
<path d="M64.8516 122.9H101.552L83.1516 154.9L64.8516 122.9ZM83.1516 122.9L92.3516 138.9H74.0516" fill="#F0678E"/>
<path d="M211.852 122.9H248.652L230.252 154.9L211.852 122.9ZM230.252 122.9L239.452 138.9H221.152" fill="#F9D664"/>
<path d="M138.352 122.9H175.052L156.652 154.9L138.352 122.9ZM156.652 122.9L165.852 138.9H147.452" fill="#F9D664"/>
<path d="M193.451 154.9H156.751L175.051 122.9L193.451 154.9ZM175.051 154.9L165.851 138.9H184.251" fill="#FFE797"/>
<path d="M101.551 218.9L110.751 234.9ZM119.851 218.9L129.051 234.9Z" fill="#F0678E"/>
<path d="M230.252 218.9H193.452L211.852 186.9L230.252 218.9ZM211.852 218.9L202.652 202.9H221.052" fill="#EE4E7C"/>
<path d="M193.452 154.9H230.252L211.852 186.9L193.452 154.9ZM211.852 154.9L221.052 170.9H202.652" fill="#FBD65E"/>
<path d="M156.751 282.9H193.451L175.051 314.9L156.751 282.9ZM175.051 282.9L184.251 298.9H165.851" fill="#D73966"/>
<path d="M193.451 218.9H156.751L175.051 186.9L193.451 218.9ZM175.051 218.9L165.851 202.9H184.251" fill="#FBD65E"/>
<path d="M83.1514 154.9H119.951L101.551 186.9L83.1514 154.9ZM101.551 154.9L110.751 170.9H92.3514M230.251 154.9H267.051L248.651 186.9L230.251 154.9ZM119.851 154.9L110.651 170.9Z" fill="#F0678E"/>
<path d="M156.752 218.9H119.952L138.352 186.9L156.752 218.9ZM138.352 218.9L129.152 202.9H147.552" fill="#EE4E7C"/>
<path d="M119.952 154.9H156.652L138.352 186.9L119.952 154.9ZM138.352 154.9L147.552 170.9H129.152" fill="#FBD65E"/>
<path d="M123.152 4H86.4517L104.752 36L123.152 4ZM104.752 4L95.5517 20H113.952" fill="#F3E0A1"/>
</svg>
