
<svg width="456.6" height="492.40000000000003" xmlns="http://www.w3.org/2000/svg">
 <style>.st0 {
          fill: #358c65;
        }
        .st1 {
          fill: #46617c;
        }
        .st2 {
          fill: #4ab181;
        }
        .st3 {
          fill: #70bd95;
        }
        .st4 {
          fill: #8bc7a7;
        }
        .st5 {
          fill: #567da2;
        }
        .st6 {
          fill: #35495e;
        }
        .st7 {
          fill: #87a9c9;
        }
        .st8 {
          fill: #afd7c3;
        }
        .st9 {
          fill: #a3beda;
        }
        .st10 {
          fill: #6991b5;
        }
        .st11 {
          fill: #399f73;
        }
        .st12 {
          fill: #38c785;
        }
        .st13 {
          fill: #873939;
        }</style>

 <g>
  <title>background</title>
  <rect x="-1" y="-1" width="458.6" height="494.4" id="canvas_background" fill="none"/>
 </g>
 <g>
  <title>Layer 1</title>
  <path class="st1" d="m176.60588,174.30588l36.7,0l-18.4,32l-18.3,-32zm18.3,0l9.2,16l-18.4,0" id="svg_2"/>
  <path class="st2" d="m139.80588,238.30588l-18.4,-32l18.4,32zm-27.6,-16l18.4,0m119.4,16l18.4,-32l-18.4,32zm-156.2,-16l18.4,0m64.4,80l-18.4,-32l18.4,32z" id="svg_3"/>
  <path class="st3" d="m213.30588,238.30588l36.8,0l-18.4,32l-18.4,-32zm18.4,0l9.2,16l-18.4,0" id="svg_4"/>
  <path class="st5" d="m250.10588,174.30588l-36.8,0l18.4,-32l18.4,32zm-18.4,0l-9.2,-16l18.4,0" id="svg_6"/>
  <path class="st2" d="m213.30588,302.30588l-36.7,0l18.3,-32l18.4,32zm-18.4,0l-9.2,-16l18.4,0" id="svg_7"/>
  <path class="st6" d="m176.60588,238.30588l36.7,0l-18.4,32l-18.3,-32zm18.3,0l9.2,16l-18.4,0" id="svg_8"/>
  <path class="st4" d="m139.80588,174.30588l-36.8,0l18.4,-32l18.4,32zm-18.4,0l-9.2,-16l18.4,0m156.2,16l-36.8,0l18.4,-32l18.4,32zm-183.8,0l-9.2,-16l18.4,0" id="svg_9"/>
  <path class="st3" d="m139.80588,238.30588l36.8,0l-18.4,32l-18.4,-32zm18.4,0l9.2,16l-18.4,0" id="svg_11"/>
  <path class="st5" d="m176.50588,174.30588l-36.7,0l18.4,-32l18.3,32zm-18.3,0l-9.2,-16l18.4,0" id="svg_12"/>
  <path class="st6" d="m194.90588,206.30588l36.8,0l-18.4,32l-18.4,-32zm18.4,0l9.2,16l-18.4,0" id="svg_15"/>
  <path class="st2" d="m84.60588,206.30588l18.4,-32l-18.4,32zm183.8,0l-36.7,0l18.4,-32l18.3,32zm-183.7,0l-9.2,-16m82.7,80l-18.4,-32l18.4,32z" id="svg_16"/>
  <path class="st7" d="m139.80588,110.30588l-36.8,0l18.4,-32l18.4,32zm-18.4,0l-9.2,-16l18.4,0m119.5,16l-36.8,0l18.4,-32l18.4,32zm-147.1,0l-9.2,-16" id="svg_18"/>
  <path class="st8" d="m103.00588,110.30588l-36.7,0l18.4,32l18.3,-32zm-18.3,0l-9.2,16l18.3,0" id="svg_19"/>
  <path class="st9" d="m270.90588,55.20588l-36.8,0l18.4,32l18.4,-32zm-18.3,0l-9.2,16l18.3,0" id="svg_20"/>
  <path class="st10" d="m231.70588,142.30588l-36.8,0l18.4,-32l18.4,32zm-18.4,0l-9.2,-16l18.4,0" id="svg_21"/>
  <path class="st4" d="m330.18419,85.16673l-36.8,0l18.4,-32l18.4,32zm-18.4,0l-9.2,-16l18.4,0" id="svg_22"/>
  <path class="st9" d="m250.10588,110.30588l-36.8,0l18.4,32l18.4,-32zm-18.4,0l-9.2,16l18.4,0" id="svg_23"/>
  <path class="st8" d="m67.55431,31.48869l-36.7,0l18.4,32l18.3,-32zm-18.4,0l-9.2,16l18.4,0" id="svg_24"/>
  <path class="st2" d="m231.70588,270.30588l-36.8,0l18.4,-32l18.4,32zm-18.4,0l-9.2,-16l18.4,0" id="svg_25"/>
  <path class="st10" d="m158.20588,142.30588l-36.8,0l18.4,-32l18.4,32zm-18.4,0l-9.2,-16l18.4,0" id="svg_26"/>
  <path class="st4" d="m101.50588,104.80588l-36.7,0l18.4,-32l18.3,32zm-18.4,0l-9.2,-16l18.4,0" id="svg_27"/>
  <path class="st9" d="m176.50588,110.30588l-36.7,0l18.4,32l18.3,-32zm-18.3,0l-9.2,16l18.4,0m-49.6,-76.4l-36.7,0l18.3,32l18.4,-32zm12.8,76.4l18.4,0" id="svg_28"/>
  <path class="st4" d="m305.20588,142.30588l-36.8,0l18.4,-32l18.4,32zm-18.4,0l-9.2,-16l18.4,0" id="svg_29"/>
  <path class="st8" d="m329.69292,101.95376l-36.8,0l18.4,32l18.4,-32z" id="svg_30"/>
  <path class="st9" d="m305.00588,25.40588l-36.7,0l18.3,32l18.4,-32zm-18.4,0l-9.2,16l18.4,0" id="svg_31"/>
  <path class="st6" d="m158.20588,206.30588l36.7,0l-18.3,32l-18.4,-32zm18.4,0l9.2,16l-18.4,0" id="svg_33"/>
  <path class="st2" d="m158.20588,206.30588l-36.8,0l18.4,-32l18.4,32zm-18.4,0l-9.2,-16l18.4,0m119.4,16l18.4,-32l-18.4,32zm-147,0l-9.2,-16l18.4,0m64.3,80l-36.7,0l18.4,-32l18.3,32zm-101,-80l91.8,0" id="svg_34"/>
  <path class="st4" d="m121.40588,142.30588l-36.8,0l18.4,-32l18.4,32zm-18.4,0l-9.2,-16l18.3,0" id="svg_35"/>
  <path class="st7" d="m176.50588,110.30588l-36.7,0l18.4,-32l18.3,32zm-18.3,0l-9.2,-16l18.4,0m119.4,16l-36.8,0l18.4,-32l18.4,32zm-147,0l9.2,-16" id="svg_36"/>
  <path class="st9" d="m139.80588,110.30588l-36.8,0l18.4,32l18.4,-32zm-18.4,0l-9.2,16l18.4,0m27.6,-59.2l-36.8,0l18.4,32l18.4,-32zm-55.2,43.2l-9.2,16l18.4,0" id="svg_37"/>
  <path class="st10" d="m268.40588,142.30588l-36.7,0l18.4,-32l18.3,32zm-18.3,0l-9.2,-16l18.3,0" id="svg_38"/>
  <path class="st9" d="m286.80588,110.30588l-36.8,0l18.4,32l18.4,-32zm-18.4,0l-9.2,16l18.4,0" id="svg_40"/>
  <path class="st10" d="m194.90588,142.30588l-36.7,0l18.3,-32l18.4,32zm-18.4,0l-9.2,-16l18.4,0" id="svg_43"/>
  <path class="st8" d="m78.48419,66.33234l-36.7,0l18.4,32l18.3,-32zm-18.4,0l-9.2,16l18.4,0" id="svg_45"/>
  <path class="st8" d="m351.17546,35.60588l-36.8,0l18.4,32l18.4,-32z" id="svg_47"/>
  <path class="st5" d="m231.70588,206.30588l-36.8,0l18.4,-32l18.4,32zm-18.4,0l-9.2,-16l18.4,0" id="svg_49"/>
  <path class="st3" d="m103.00588,206.30588l9.2,16m119.5,-16l36.8,0l-18.4,32l-18.4,-32zm-110.3,0l9.2,16" id="svg_50"/>
  <path class="st7" d="m194.90588,142.30588l36.8,0l-18.4,32l-18.4,-32zm18.4,0l9.2,16l-18.4,0" id="svg_53"/>
  <path class="st11" d="m194.90588,270.30588l36.8,0l-18.4,32l-18.4,-32zm18.4,0l9.2,16l-18.4,0" id="svg_54"/>
  <path class="st7" d="m121.40588,142.30588l36.8,0l-18.4,32l-18.4,-32zm18.4,0l9.2,16l-18.4,0" id="svg_55"/>
  <path class="st3" d="m268.40588,142.30588l36.8,0l-18.4,32l-18.4,-32zm18.4,0l9.2,16l-18.4,0" id="svg_56"/>
  <path class="st5" d="m194.90588,206.30588l-36.7,0l18.4,-32l18.3,32zm-18.3,0l-9.2,-16l18.3,0" id="svg_58"/>
  <path class="st3" d="m121.40588,206.30588l36.8,0l-18.4,32l-18.4,-32zm18.4,0l9.2,16l-18.4,0m27.6,-16l9.2,16l-18.4,0" id="svg_59"/>
  <path class="st11" d="m158.20588,270.30588l36.7,0l-18.3,32l-18.4,-32zm18.4,0l9.2,16l-18.4,0" id="svg_60"/>
  <path class="st3" d="m84.70588,142.30588l36.7,0l-18.4,32l-18.3,-32zm18.3,0l9.2,16l-18.3,0" id="svg_61"/>
  <path class="st7" d="m231.70588,142.30588l36.8,0l-18.4,32l-18.4,-32zm18.4,0l9.2,16l-18.3,0" id="svg_62"/>
  <path class="st7" d="m158.20588,142.30588l36.7,0l-18.4,32l-18.3,-32zm18.3,0l9.2,16l-18.4,0" id="svg_64"/>
  <path class="st5" d="m213.30588,174.30588l-36.7,0l18.3,-32l18.4,32zm-18.4,0l-9.2,-16l18.4,0" id="svg_67"/>
  <path class="st3" d="m103.00588,238.30588l36.8,0l-36.8,0zm18.4,0l9.2,16m119.5,-16l36.8,0l-36.8,0zm-110.4,0l9.2,16" id="svg_68"/>
  <path class="st2" d="m250.10588,238.30588l-36.8,0l18.4,-32l18.4,32zm-18.4,0l-9.2,-16l18.4,0" id="svg_70"/>
  <path class="st1" d="m213.30588,174.30588l36.8,0l-18.4,32l-18.4,-32zm18.4,0l9.2,16l-18.4,0" id="svg_72"/>
  <path class="st11" d="m176.60588,302.30588l36.7,0l-18.4,32l-18.3,-32zm18.3,0l9.2,16l-18.4,0" id="svg_73"/>
  <path class="st1" d="m213.30588,238.30588l-36.7,0l18.3,-32l18.4,32zm-18.4,0l-9.2,-16l18.4,0" id="svg_74"/>
  <path class="st3" d="m103.00588,174.30588l36.8,0l-18.4,32l-18.4,-32zm18.4,0l9.2,16l-18.4,0m137.9,-16l36.8,0l-18.4,32l-18.4,-32zm-110.4,0l-9.2,16" id="svg_75"/>
  <path class="st2" d="m176.60588,238.30588l-36.8,0l18.4,-32l18.4,32zm-18.4,0l-9.2,-16l18.4,0" id="svg_77"/>
  <path class="st1" d="m139.80588,174.30588l36.7,0l-18.3,32l-18.4,-32zm18.4,0l9.2,16l-18.4,0" id="svg_78"/>
  <path class="st9" d="m143.00588,29.40588l-36.7,0l18.3,32l18.4,-32zm-18.4,0l-9.2,16l18.4,0" id="svg_1"/>
 </g>
</svg>
