<svg
      width="200"
      version="1.1"
      id="Layer_1"
      xmlns="http://www.w3.org/2000/svg"
      x="0"
      y="0"
      viewBox="0 0 456.6 492.4"
      xml:space="preserve"
    >
      <style>
        .st0 {
          fill: #358c65;
        }
        .st1 {
          fill: #46617c;
        }
        .st2 {
          fill: #4ab181;
        }
        .st3 {
          fill: #70bd95;
        }
        .st4 {
          fill: #8bc7a7;
        }
        .st5 {
          fill: #567da2;
        }
        .st6 {
          fill: #35495e;
        }
        .st7 {
          fill: #87a9c9;
        }
        .st8 {
          fill: #afd7c3;
        }
        .st9 {
          fill: #a3beda;
        }
        .st10 {
          fill: #6991b5;
        }
        .st11 {
          fill: #399f73;
        }
        .st12 {
          fill: #38c785;
        }
        .st13 {
          fill: #873939;
        }
      </style>
      <path
        class="st0"
        d="M246.6 349.6h-36.7l18.3-32 18.4 32zm-18.4 0l-9.2-16h18.4"
      />
      <path
        class="st1"
        d="M209.9 157.6h36.7l-18.4 32-18.3-32zm18.3 0l9.2 16H219"
      />
      <path
        class="st2"
        d="M173.1 221.6h-36.8l18.4-32 18.4 32zm-18.4 0l-9.2-16h18.4M320.1 221.6h-36.8l18.4-32 18.4 32zm-18.4 0l-9.2-16h18.4M209.9 285.6h-36.8l18.4-32 18.4 32zm-18.4 0l-9.2-16h18.4"
      />
      <path
        class="st3"
        d="M246.6 221.6h36.8l-18.4 32-18.4-32zm18.4 0l9.2 16h-18.4"
      />
      <path
        class="st4"
        d="M136.3 157.6H99.6l18.4-32 18.3 32zm-18.3 0l-9.2-16h18.3"
      />
      <path
        class="st5"
        d="M283.4 157.6h-36.8l18.4-32 18.4 32zm-18.4 0l-9.2-16h18.4"
      />
      <path
        class="st2"
        d="M246.6 285.6h-36.7l18.3-32 18.4 32zm-18.4 0l-9.2-16h18.4"
      />
      <path
        class="st6"
        d="M209.9 221.6h36.7l-18.4 32-18.3-32zm18.3 0l9.2 16H219"
      />
      <path
        class="st4"
        d="M173.1 157.6h-36.8l18.4-32 18.4 32zm-18.4 0l-9.2-16h18.4M320.1 157.6h-36.8l18.4-32 18.4 32zm-18.4 0l-9.2-16h18.4"
      />
      <path
        class="st2"
        d="M283.4 285.6h-36.8l18.4-32 18.4 32zm-18.4 0l-9.2-16h18.4"
      />
      <path
        class="st3"
        d="M173.1 221.6h36.8l-18.4 32-18.4-32zm18.4 0l9.2 16h-18.4"
      />
      <path
        class="st5"
        d="M209.8 157.6h-36.7l18.4-32 18.3 32zm-18.3 0l-9.2-16h18.4"
      />
      <path
        class="st4"
        d="M356.9 157.6h-36.8l18.4-32 18.4 32zm-18.4 0l-9.2-16h18.4"
      />
      <path
        class="st0"
        d="M228.2 317.6h-36.7l18.4-32 18.3 32zm-18.3 0l-9.2-16H219"
      />
      <path
        class="st6"
        d="M228.2 189.6H265l-18.4 32-18.4-32zm18.4 0l9.2 16h-18.4"
      />
      <path
        class="st2"
        d="M154.7 189.6h-36.8l18.4-32 18.4 32zm-18.4 0l-9.2-16h18.3M301.7 189.6H265l18.4-32 18.3 32zm-18.3 0l-9.2-16h18.3M191.5 253.6h-36.8l18.4-32 18.4 32zm-18.4 0l-9.2-16h18.4"
      />
      <path
        class="st4"
        d="M118 125.6H81.2l18.4-32 18.4 32zm-18.4 0l-9.2-16h18.4"
      />
      <path
        class="st7"
        d="M173.1 93.6h-36.8l18.4-32 18.4 32zm-18.4 0l-9.2-16h18.4M283.4 93.6h-36.8l18.4-32 18.4 32zm-18.4 0l-9.2-16h18.4"
      />
      <path
        class="st8"
        d="M136.3 93.6H99.6l18.4 32 18.3-32zm-18.3 0l-9.2 16h18.3"
      />
      <path
        class="st9"
        d="M304.2 38.5h-36.8l18.4 32 18.4-32zm-18.3 0l-9.2 16H295"
      />
      <path
        class="st10"
        d="M265 125.6h-36.8l18.4-32 18.4 32zm-18.4 0l-9.2-16h18.4"
      />
      <path
        class="st4"
        d="M360 70.2h-36.8l18.4-32 18.4 32zm-18.4 0l-9.2-16h18.4"
      />
      <path
        class="st9"
        d="M283.4 93.6h-36.8l18.4 32 18.4-32zm-18.4 0l-9.2 16h18.4"
      />
      <path class="st8" d="M56.5 0H19.8l18.4 32L56.5 0zM38.1 0l-9.2 16h18.4" />
      <path
        class="st2"
        d="M265 253.6h-36.8l18.4-32 18.4 32zm-18.4 0l-9.2-16h18.4"
      />
      <path
        class="st10"
        d="M191.5 125.6h-36.8l18.4-32 18.4 32zm-18.4 0l-9.2-16h18.4"
      />
      <path
        class="st4"
        d="M134.8 88.1H98.1l18.4-32 18.3 32zm-18.4 0l-9.2-16h18.4"
      />
      <path
        class="st9"
        d="M209.8 93.6h-36.7l18.4 32 18.3-32zm-18.3 0l-9.2 16h18.4M151.1 33.2h-36.7l18.3 32 18.4-32zm-18.4 0l-9.2 16h18.4"
      />
      <path
        class="st4"
        d="M338.5 125.6h-36.8l18.4-32 18.4 32zm-18.4 0l-9.2-16h18.4"
      />
      <path
        class="st8"
        d="M430.7 7.2h-36.8l18.4 32 18.4-32zm-18.4 0l-9.2 16h18.3M356.9 80.9h-36.8l18.4 32 18.4-32zm-18.4 0l-9.2 16h18.4"
      />
      <path
        class="st9"
        d="M338.3 8.7h-36.7l18.3 32 18.4-32zm-18.4 0l-9.2 16h18.4"
      />
      <path
        class="st0"
        d="M265 317.6h-36.8l18.4-32 18.4 32zm-18.4 0l-9.2-16h18.4"
      />
      <path
        class="st6"
        d="M191.5 189.6h36.7l-18.3 32-18.4-32zm18.4 0l9.2 16h-18.4"
      />
      <path
        class="st2"
        d="M191.5 189.6h-36.8l18.4-32 18.4 32zm-18.4 0l-9.2-16h18.4M338.5 189.6h-36.8l18.4-32 18.4 32zm-18.4 0l-9.2-16h18.4M228.2 253.6h-36.7l18.4-32 18.3 32zm-18.3 0l-9.2-16H219"
      />
      <path
        class="st4"
        d="M154.7 125.6h-36.8l18.4-32 18.4 32zm-18.4 0l-9.2-16h18.3"
      />
      <path
        class="st7"
        d="M209.8 93.6h-36.7l18.4-32 18.3 32zm-18.3 0l-9.2-16h18.4M320.1 93.6h-36.8l18.4-32 18.4 32zm-18.4 0l-9.2-16h18.4"
      />
      <path
        class="st9"
        d="M173.1 93.6h-36.8l18.4 32 18.4-32zm-18.4 0l-9.2 16h18.4M191.5 50.4h-36.8l18.4 32 18.4-32zm-18.4 0l-9.2 16h18.4"
      />
      <path
        class="st10"
        d="M301.7 125.6H265l18.4-32 18.3 32zm-18.3 0l-9.2-16h18.3"
      />
      <path
        class="st4"
        d="M400.5 82.2h-36.8l18.4-32 18.4 32zm-18.4 0l-9.2-16h18.4"
      />
      <path
        class="st9"
        d="M320.1 93.6h-36.8l18.4 32 18.4-32zm-18.4 0l-9.2 16h18.4"
      />
      <path
        class="st8"
        d="M94.6 79.9H57.8l18.4 32 18.4-32zm-18.4 0l-9.2 16h18.3"
      />
      <path
        class="st2"
        d="M301.7 253.6H265l18.4-32 18.3 32zm-18.3 0l-9.2-16h18.3"
      />
      <path
        class="st10"
        d="M228.2 125.6h-36.7l18.3-32 18.4 32zm-18.4 0l-9.2-16H219"
      />
      <path
        class="st4"
        d="M85.2 70.5H48.4l18.4-32 18.4 32zm-18.4 0l-9.2-16H76"
      />
      <path
        class="st8"
        d="M108.3 21.8H71.6l18.4 32 18.3-32zm-18.4 0l-9.2 16h18.4"
      />
      <path
        class="st4"
        d="M375.2 125.6h-36.7l18.4-32 18.3 32zm-18.3 0l-9.2-16h18.4"
      />
      <path
        class="st8"
        d="M393.6 93.6h-36.7l18.3 32 18.4-32zm-18.4 0l-9.2 16h18.4M383.6 18.9h-36.8l18.4 32 18.4-32zm-18.4 0l-9.2 16h18.4"
      />
      <path
        class="st11"
        d="M191.5 317.6h36.7l-18.3 32-18.4-32zm18.4 0l9.2 16h-18.4"
      />
      <path
        class="st5"
        d="M265 189.6h-36.8l18.4-32 18.4 32zm-18.4 0l-9.2-16h18.4"
      />
      <path
        class="st3"
        d="M118 189.6h36.7l-18.4 32-18.3-32zm18.3 0l9.2 16h-18.3M265 189.6h36.8l-18.4 32-18.4-32zm18.4 0l9.2 16h-18.3"
      />
      <path
        class="st11"
        d="M154.7 253.6h36.8l-18.4 32-18.4-32zm18.4 0l9.2 16h-18.4"
      />
      <path
        class="st3"
        d="M81.2 125.6H118l-18.4 32-18.4-32zm18.4 0l9.2 16H90.4"
      />
      <path
        class="st7"
        d="M228.2 125.6H265l-18.4 32-18.4-32zm18.4 0l9.2 16h-18.4"
      />
      <path
        class="st11"
        d="M228.2 253.6H265l-18.4 32-18.4-32zm18.4 0l9.2 16h-18.4"
      />
      <path
        class="st7"
        d="M154.7 125.6h36.8l-18.4 32-18.4-32zm18.4 0l9.2 16h-18.4"
      />
      <path
        class="st3"
        d="M301.7 125.6h36.8l-18.4 32-18.4-32zm18.4 0l9.2 16h-18.4"
      />
      <path
        class="st11"
        d="M228.2 317.6H265l-18.4 32-18.4-32zm18.4 0l9.2 16h-18.4"
      />
      <path
        class="st5"
        d="M228.2 189.6h-36.7l18.4-32 18.3 32zm-18.3 0l-9.2-16H219"
      />
      <path
        class="st3"
        d="M154.7 189.6h36.8l-18.4 32-18.4-32zm18.4 0l9.2 16h-18.4M301.7 189.6h36.8l-18.4 32-18.4-32zm18.4 0l9.2 16h-18.4"
      />
      <path
        class="st11"
        d="M191.5 253.6h36.7l-18.3 32-18.4-32zm18.4 0l9.2 16h-18.4"
      />
      <path
        class="st3"
        d="M118 125.6h36.7l-18.4 32-18.3-32zm18.3 0l9.2 16h-18.3"
      />
      <path
        class="st7"
        d="M265 125.6h36.8l-18.4 32-18.4-32zm18.4 0l9.2 16h-18.3"
      />
      <path
        class="st11"
        d="M265 253.6h36.8l-18.4 32-18.4-32zm18.4 0l9.2 16h-18.3"
      />
      <path
        class="st7"
        d="M191.5 125.6h36.7l-18.4 32-18.3-32zm18.3 0l9.2 16h-18.4"
      />
      <path
        class="st3"
        d="M338.5 125.6h36.7l-18.3 32-18.4-32zm18.4 0l9.2 16h-18.4"
      />
      <path
        class="st11"
        d="M209.9 349.6h36.7l-18.4 32-18.3-32zm18.3 0l9.2 16H219"
      />
      <path
        class="st5"
        d="M246.6 157.6h-36.7l18.3-32 18.4 32zm-18.4 0l-9.2-16h18.4"
      />
      <path
        class="st3"
        d="M136.3 221.6h36.8l-18.4 32-18.4-32zm18.4 0l9.2 16h-18.4M283.4 221.6h36.8l-18.4 32-18.4-32zm18.3 0l9.2 16h-18.4"
      />
      <path
        class="st11"
        d="M173.1 285.6h36.8l-18.4 32-18.4-32zm18.4 0l9.2 16h-18.4"
      />
      <path
        class="st2"
        d="M283.4 221.6h-36.8l18.4-32 18.4 32zm-18.4 0l-9.2-16h18.4"
      />
      <path
        class="st3"
        d="M99.6 157.6h36.8l-18.4 32-18.4-32zm18.4 0l9.2 16h-18.4"
      />
      <path
        class="st1"
        d="M246.6 157.6h36.8l-18.4 32-18.4-32zm18.4 0l9.2 16h-18.4"
      />
      <path
        class="st11"
        d="M209.9 285.6h36.7l-18.4 32-18.3-32zm18.3 0l9.2 16H219"
      />
      <path
        class="st1"
        d="M246.6 221.6h-36.7l18.3-32 18.4 32zm-18.4 0l-9.2-16h18.4"
      />
      <path
        class="st3"
        d="M136.3 157.6h36.8l-18.4 32-18.4-32zm18.4 0l9.2 16h-18.4M283.4 157.6h36.8l-18.4 32-18.4-32zm18.3 0l9.2 16h-18.4"
      />
      <path
        class="st11"
        d="M246.6 285.6h36.8l-18.4 32-18.4-32zm18.4 0l9.2 16h-18.4"
      />
      <path
        class="st2"
        d="M209.9 221.6h-36.8l18.4-32 18.4 32zm-18.4 0l-9.2-16h18.4"
      />
      <path
        class="st1"
        d="M173.1 157.6h36.7l-18.3 32-18.4-32zm18.4 0l9.2 16h-18.4"
      />
      <path
        class="st3"
        d="M320.1 157.6h36.8l-18.4 32-18.4-32zm18.4 0l9.2 16h-18.4"
      />
    </svg>
