<svg width="430" height="380" viewBox="0 0 430 380" fill="none" xmlns="http://www.w3.org/2000/svg">
<path d="M237.8 343.9H201.1L219.4 311.9L237.8 343.9ZM219.4 343.9L210.2 327.9H228.6" fill="#FF487C"/>
<path d="M201.1 151.9H237.8L219.4 183.9L201.1 151.9ZM219.4 151.9L228.6 167.9H210.2" fill="#FBCB2F"/>
<path d="M164.3 215.9H127.5L145.9 183.9L164.3 215.9ZM145.9 215.9L136.7 199.9H155.1M311.3 215.9H274.5L292.9 183.9L311.3 215.9ZM292.9 215.9L283.7 199.9H302.1M201.1 279.9H164.3L182.7 247.9L201.1 279.9ZM182.7 279.9L173.5 263.9H191.9" fill="#FF4F81"/>
<path d="M237.8 215.9H274.6L256.2 247.9L237.8 215.9ZM256.2 215.9L265.4 231.9H247" fill="#F03C6F"/>
<path d="M127.5 151.9H90.8003L109.2 119.9L127.5 151.9ZM109.2 151.9L100 135.9H118.3" fill="#FF6792"/>
<path d="M274.6 151.9H237.8L256.2 119.9L274.6 151.9ZM256.2 151.9L247 135.9H265.4" fill="#FFE797"/>
<path d="M237.8 279.9H201.1L219.4 247.9L237.8 279.9ZM219.4 279.9L210.2 263.9H228.6" fill="#FF4F81"/>
<path d="M201.1 215.9H237.8L219.4 247.9L201.1 215.9ZM219.4 215.9L228.6 231.9H210.2" fill="#F1AD28"/>
<path d="M164.3 151.9H127.5L145.9 119.9L164.3 151.9ZM145.9 151.9L136.7 135.9H155.1M311.3 151.9H274.5L292.9 119.9L311.3 151.9ZM292.9 151.9L283.7 135.9H302.1" fill="#FF6792"/>
<path d="M274.6 279.9H237.8L256.2 247.9L274.6 279.9ZM256.2 279.9L247 263.9H265.4" fill="#FF4F81"/>
<path d="M164.3 215.9H201.1L182.7 247.9L164.3 215.9ZM182.7 215.9L191.9 231.9H173.5" fill="#F03C6F"/>
<path d="M201 151.9H164.3L182.7 119.9L201 151.9ZM182.7 151.9L173.5 135.9H191.9" fill="#FFE797"/>
<path d="M348.1 151.9H311.3L329.7 119.9L348.1 151.9ZM329.7 151.9L320.5 135.9H338.9" fill="#FF6792"/>
<path d="M219.4 311.9H182.7L201.1 279.9L219.4 311.9ZM201.1 311.9L191.9 295.9H210.2" fill="#FF487C"/>
<path d="M219.4 183.9H256.2L237.8 215.9L219.4 183.9ZM237.8 183.9L247 199.9H228.6" fill="#F1AD28"/>
<path d="M145.9 183.9H109.1L127.5 151.9L145.9 183.9ZM127.5 183.9L118.3 167.9H136.6M292.9 183.9H256.2L274.6 151.9L292.9 183.9ZM274.6 183.9L265.4 167.9H283.7M182.7 247.9H145.9L164.3 215.9L182.7 247.9ZM164.3 247.9L155.1 231.9H173.5" fill="#FF4F81"/>
<path d="M109.2 119.9H72.4004L90.8004 87.9L109.2 119.9ZM90.8004 119.9L81.6004 103.9H100" fill="#FF6792"/>
<path d="M164.3 87.9H127.5L145.9 55.9L164.3 87.9ZM145.9 87.9L136.7 71.9H155.1M274.6 87.9H237.8L256.2 55.9L274.6 87.9ZM256.2 87.9L247 71.9H265.4" fill="#F9D664"/>
<path d="M127.5 87.9H90.8003L109.2 119.9L127.5 87.9ZM109.2 87.9L100 103.9H118.3" fill="#FFA6BF"/>
<path d="M295.4 32.8H258.6L277 64.8L295.4 32.8ZM277.1 32.8L267.9 48.8H286.2" fill="#FFE17C"/>
<path d="M256.2 119.9H219.4L237.8 87.9L256.2 119.9ZM237.8 119.9L228.6 103.9H247" fill="#FFCE51"/>
<path d="M351.2 64.5H314.4L332.8 32.5L351.2 64.5ZM332.8 64.5L323.6 48.5H342" fill="#FF6792"/>
<path d="M274.6 87.9H237.8L256.2 119.9L274.6 87.9ZM256.2 87.9L247 103.9H265.4" fill="#FFE17C"/>
<path d="M39.7 4.29999H3L21.4 36.3L39.7 4.29999ZM21.3 4.29999L12.1 20.3H30.5" fill="#FFA6BF"/>
<path d="M256.2 247.9H219.4L237.8 215.9L256.2 247.9ZM237.8 247.9L228.6 231.9H247" fill="#FF4F81"/>
<path d="M182.7 119.9H145.9L164.3 87.9L182.7 119.9ZM164.3 119.9L155.1 103.9H173.5" fill="#FFCE51"/>
<path d="M126 82.4H89.3003L107.7 50.4L126 82.4ZM107.6 82.4L98.4003 66.4H116.8" fill="#FF6792"/>
<path d="M201 87.9H164.3L182.7 119.9L201 87.9ZM182.7 87.9L173.5 103.9H191.9M142.3 27.5H105.6L123.9 59.5L142.3 27.5ZM123.9 27.5L114.7 43.5H133.1" fill="#FFE17C"/>
<path d="M329.7 119.9H292.9L311.3 87.9L329.7 119.9ZM311.3 119.9L302.1 103.9H320.5" fill="#FF6792"/>
<path d="M427.9 4.5H391.1L409.5 36.5L427.9 4.5ZM409.5 4.5L400.3 20.5H418.6M348.1 75.2H311.3L329.7 107.2L348.1 75.2ZM329.7 75.2L320.5 91.2H338.9" fill="#FFA6BF"/>
<path d="M329.5 3H292.8L311.1 35L329.5 3ZM311.1 3L301.9 19H320.3" fill="#FFE17C"/>
<path d="M256.2 311.9H219.4L237.8 279.9L256.2 311.9ZM237.8 311.9L228.6 295.9H247" fill="#FF487C"/>
<path d="M182.7 183.9H219.4L201.1 215.9L182.7 183.9ZM201.1 183.9L210.3 199.9H191.9" fill="#F1AD28"/>
<path d="M182.7 183.9H145.9L164.3 151.9L182.7 183.9ZM164.3 183.9L155.1 167.9H173.5M329.7 183.9H292.9L311.3 151.9L329.7 183.9ZM311.3 183.9L302.1 167.9H320.5M219.4 247.9H182.7L201.1 215.9L219.4 247.9ZM201.1 247.9L191.9 231.9H210.2" fill="#FF4F81"/>
<path d="M145.9 119.9H109.1L127.5 87.9L145.9 119.9ZM127.5 119.9L118.3 103.9H136.6" fill="#FF6792"/>
<path d="M201 87.9H164.3L182.7 55.9L201 87.9ZM182.7 87.9L173.5 71.9H191.9M311.3 87.9H274.5L292.9 55.9L311.3 87.9ZM292.9 87.9L283.7 71.9H302.1" fill="#F9D664"/>
<path d="M164.3 87.9H127.5L145.9 119.9L164.3 87.9ZM145.9 87.9L136.7 103.9H155.1M182.7 44.7H145.9L164.3 76.7L182.7 44.7ZM164.3 44.7L155.1 60.7H173.5" fill="#FFE17C"/>
<path d="M292.9 119.9H256.2L274.6 87.9L292.9 119.9ZM274.6 119.9L265.4 103.9H283.7" fill="#FFCE51"/>
<path d="M400.7 74.5H363.9L382.3 42.5L400.7 74.5ZM382.3 74.5L373.1 58.5H391.5" fill="#FF6792"/>
<path d="M311.3 87.9H274.5L292.9 119.9L311.3 87.9ZM292.9 87.9L283.7 103.9H302.1" fill="#FFE17C"/>
<path d="M81.8 77.2H45L63.4 109.2L81.8 77.2ZM63.4 77.2L54.2 93.2H72.5" fill="#FFA6BF"/>
<path d="M292.9 247.9H256.2L274.6 215.9L292.9 247.9ZM274.6 247.9L265.4 231.9H283.7" fill="#FF4F81"/>
<path d="M219.4 119.9H182.7L201 87.9L219.4 119.9ZM201 119.9L191.8 103.9H210.2" fill="#FFCE51"/>
<path d="M74.4001 62.8H37.6001L56.0001 30.8L74.4001 62.8ZM56.0001 62.8L46.8001 46.8H65.2001" fill="#FF6792"/>
<path d="M98.5003 16.1H61.8003L80.2003 48.1L98.5003 16.1ZM80.1003 16.1L70.9003 32.1H89.3003" fill="#FFA6BF"/>
<path d="M366.4 119.9H329.7L348.1 87.9L366.4 119.9ZM348.1 119.9L338.9 103.9H357.3" fill="#FF6792"/>
<path d="M391.8 84.9H355.1L373.4 116.9L391.8 84.9ZM373.4 84.9L364.2 100.9H382.6M381.8 10.2H345L363.4 42.2L381.8 10.2ZM363.4 10.2L354.2 26.2H372.6" fill="#FFA6BF"/>
<path d="M182.7 311.9H219.4L201.1 343.9L182.7 311.9ZM201.1 311.9L210.3 327.9H191.9" fill="#EA205A"/>
<path d="M256.2 183.9H219.4L237.8 151.9L256.2 183.9ZM237.8 183.9L228.6 167.9H247" fill="#FFE797"/>
<path d="M109.2 183.9H145.9L127.5 215.9L109.2 183.9ZM127.5 183.9L136.7 199.9H118.4M256.2 183.9H293L274.6 215.9L256.2 183.9ZM274.6 183.9L283.8 199.9H265.5" fill="#F03C6F"/>
<path d="M145.9 247.9H182.7L164.3 279.9L145.9 247.9ZM164.3 247.9L173.5 263.9H155.1" fill="#EA205A"/>
<path d="M72.4004 119.9H109.2L90.8004 151.9L72.4004 119.9ZM90.8004 119.9L100 135.9H81.6004" fill="#F03C6F"/>
<path d="M219.4 119.9H256.2L237.8 151.9L219.4 119.9ZM237.8 119.9L247 135.9H228.6" fill="#F9D664"/>
<path d="M219.4 247.9H256.2L237.8 279.9L219.4 247.9ZM237.8 247.9L247 263.9H228.6" fill="#EA205A"/>
<path d="M145.9 119.9H182.7L164.3 151.9L145.9 119.9ZM164.3 119.9L173.5 135.9H155.1" fill="#F9D664"/>
<path d="M292.9 119.9H329.7L311.3 151.9L292.9 119.9ZM311.3 119.9L320.5 135.9H302.1" fill="#F03C6F"/>
<path d="M219.4 311.9H256.2L237.8 343.9L219.4 311.9ZM237.8 311.9L247 327.9H228.6" fill="#EA205A"/>
<path d="M219.4 183.9H182.7L201.1 151.9L219.4 183.9ZM201.1 183.9L191.9 167.9H210.2" fill="#FFE797"/>
<path d="M145.9 183.9H182.7L164.3 215.9L145.9 183.9ZM164.3 183.9L173.5 199.9H155.1M292.9 183.9H329.7L311.3 215.9L292.9 183.9ZM311.3 183.9L320.5 199.9H302.1" fill="#F03C6F"/>
<path d="M182.7 247.9H219.4L201.1 279.9L182.7 247.9ZM201.1 247.9L210.3 263.9H191.9" fill="#EA205A"/>
<path d="M109.2 119.9H145.9L127.5 151.9L109.2 119.9ZM127.5 119.9L136.7 135.9H118.4" fill="#F03C6F"/>
<path d="M256.2 119.9H293L274.6 151.9L256.2 119.9ZM274.6 119.9L283.8 135.9H265.5" fill="#F9D664"/>
<path d="M256.2 247.9H293L274.6 279.9L256.2 247.9ZM274.6 247.9L283.8 263.9H265.5" fill="#EA205A"/>
<path d="M182.7 119.9H219.4L201 151.9L182.7 119.9ZM201 119.9L210.2 135.9H191.8" fill="#F9D664"/>
<path d="M329.7 119.9H366.4L348.1 151.9L329.7 119.9ZM348.1 119.9L357.3 135.9H338.9" fill="#F03C6F"/>
<path d="M201.1 343.9H237.8L219.4 375.9L201.1 343.9ZM219.4 343.9L228.6 359.9H210.2" fill="#DA3060"/>
<path d="M237.8 151.9H201.1L219.4 119.9L237.8 151.9ZM219.4 151.9L210.2 135.9H228.6" fill="#FFE797"/>
<path d="M127.5 215.9H164.3L145.9 247.9L127.5 215.9ZM145.9 215.9L155.1 231.9H136.7M274.6 215.9H311.4L293 247.9L274.6 215.9ZM292.9 215.9L302.1 231.9H283.7" fill="#F03C6F"/>
<path d="M164.3 279.9H201.1L182.7 311.9L164.3 279.9ZM182.7 279.9L191.9 295.9H173.5" fill="#EA205A"/>
<path d="M274.6 215.9H237.8L256.2 183.9L274.6 215.9ZM256.2 215.9L247 199.9H265.4" fill="#FF4F81"/>
<path d="M90.8003 151.9H127.6L109.2 183.9L90.8003 151.9ZM109.2 151.9L118.4 167.9H100" fill="#F03C6F"/>
<path d="M237.8 151.9H274.6L256.2 183.9L237.8 151.9ZM256.2 151.9L265.4 167.9H247" fill="#FBCB2F"/>
<path d="M201.1 279.9H237.8L219.4 311.9L201.1 279.9ZM219.4 279.9L228.6 295.9H210.2" fill="#EA205A"/>
<path d="M237.8 215.9H201.1L219.4 183.9L237.8 215.9ZM219.4 215.9L210.2 199.9H228.6" fill="#FBCB2F"/>
<path d="M127.5 151.9H164.3L145.9 183.9L127.5 151.9ZM145.9 151.9L155.1 167.9H136.7M274.6 151.9H311.4L293 183.9L274.6 151.9ZM292.9 151.9L302.1 167.9H283.7" fill="#F03C6F"/>
<path d="M237.8 279.9H274.6L256.2 311.9L237.8 279.9ZM256.2 279.9L265.4 295.9H247" fill="#EA205A"/>
<path d="M201.1 215.9H164.3L182.7 183.9L201.1 215.9ZM182.7 215.9L173.5 199.9H191.9" fill="#FF4F81"/>
<path d="M164.3 151.9H201L182.7 183.9L164.3 151.9ZM182.7 151.9L191.9 167.9H173.5" fill="#FBCB2F"/>
<path d="M311.3 151.9H348.1L329.7 183.9L311.3 151.9ZM329.7 151.9L338.9 167.9H320.5" fill="#F03C6F"/>
</svg>
